<mxfile host="app.diagrams.net" modified="2021-02-06T14:56:18.120Z" agent="5.0 (Macintosh; Intel Mac OS X 11_2_0) AppleWebKit/537.36 (KHTML, like Gecko) Chrome/88.0.4324.146 Safari/537.36" etag="qzIt8KAQHEsUVsSZHnha" version="14.2.9" type="github">
  <diagram id="jnGAQ95R3bfAyTxqHNyd" name="ページ1">
    <mxGraphModel dx="1906" dy="1037" grid="1" gridSize="10" guides="1" tooltips="1" connect="1" arrows="1" fold="1" page="1" pageScale="1" pageWidth="827" pageHeight="1169" math="0" shadow="0">
      <root>
        <mxCell id="0" />
        <mxCell id="1" parent="0" />
        <mxCell id="rF3gwP-p-KgcrX38op58-1" value="開始" style="strokeWidth=2;html=1;shape=mxgraph.flowchart.start_1;whiteSpace=wrap;" vertex="1" parent="1">
          <mxGeometry x="140" y="40" width="160" height="60" as="geometry" />
        </mxCell>
        <mxCell id="rF3gwP-p-KgcrX38op58-2" value="" style="endArrow=classic;html=1;" edge="1" parent="1">
          <mxGeometry width="50" height="50" relative="1" as="geometry">
            <mxPoint x="219.5" y="100" as="sourcePoint" />
            <mxPoint x="220" y="170" as="targetPoint" />
          </mxGeometry>
        </mxCell>
        <mxCell id="rF3gwP-p-KgcrX38op58-3" value="INPUT hp" style="shape=parallelogram;html=1;strokeWidth=2;perimeter=parallelogramPerimeter;whiteSpace=wrap;rounded=1;arcSize=12;size=0.23;" vertex="1" parent="1">
          <mxGeometry x="130" y="170" width="170" height="60" as="geometry" />
        </mxCell>
        <mxCell id="rF3gwP-p-KgcrX38op58-4" value="" style="endArrow=classic;html=1;" edge="1" parent="1">
          <mxGeometry width="50" height="50" relative="1" as="geometry">
            <mxPoint x="219.5" y="230" as="sourcePoint" />
            <mxPoint x="220" y="290" as="targetPoint" />
          </mxGeometry>
        </mxCell>
        <mxCell id="rF3gwP-p-KgcrX38op58-37" style="edgeStyle=orthogonalEdgeStyle;rounded=0;orthogonalLoop=1;jettySize=auto;html=1;entryX=0.5;entryY=0;entryDx=0;entryDy=0;" edge="1" parent="1" source="rF3gwP-p-KgcrX38op58-7" target="rF3gwP-p-KgcrX38op58-32">
          <mxGeometry relative="1" as="geometry" />
        </mxCell>
        <mxCell id="rF3gwP-p-KgcrX38op58-7" value="hp &amp;lt; 30" style="strokeWidth=2;html=1;shape=mxgraph.flowchart.decision;whiteSpace=wrap;" vertex="1" parent="1">
          <mxGeometry x="130" y="290" width="180" height="70" as="geometry" />
        </mxCell>
        <mxCell id="rF3gwP-p-KgcrX38op58-8" value="" style="endArrow=classic;html=1;" edge="1" parent="1">
          <mxGeometry width="50" height="50" relative="1" as="geometry">
            <mxPoint x="219.5" y="360" as="sourcePoint" />
            <mxPoint x="220" y="420" as="targetPoint" />
          </mxGeometry>
        </mxCell>
        <mxCell id="rF3gwP-p-KgcrX38op58-10" value="" style="verticalLabelPosition=bottom;verticalAlign=top;html=1;shape=process;whiteSpace=wrap;rounded=1;size=0.14;arcSize=6;" vertex="1" parent="1">
          <mxGeometry x="135" y="420" width="170" height="60" as="geometry" />
        </mxCell>
        <mxCell id="rF3gwP-p-KgcrX38op58-11" value="result ← 回復する(hp)" style="text;html=1;strokeColor=none;fillColor=none;align=center;verticalAlign=middle;whiteSpace=wrap;rounded=0;" vertex="1" parent="1">
          <mxGeometry x="160" y="440" width="120" height="20" as="geometry" />
        </mxCell>
        <mxCell id="rF3gwP-p-KgcrX38op58-14" value="回復する" style="strokeWidth=2;html=1;shape=mxgraph.flowchart.start_1;whiteSpace=wrap;" vertex="1" parent="1">
          <mxGeometry x="520" y="420" width="160" height="60" as="geometry" />
        </mxCell>
        <mxCell id="rF3gwP-p-KgcrX38op58-15" value="" style="endArrow=classic;html=1;" edge="1" parent="1" target="rF3gwP-p-KgcrX38op58-16">
          <mxGeometry width="50" height="50" relative="1" as="geometry">
            <mxPoint x="600" y="480" as="sourcePoint" />
            <mxPoint x="600.5" y="540" as="targetPoint" />
          </mxGeometry>
        </mxCell>
        <mxCell id="rF3gwP-p-KgcrX38op58-16" value="result ← hp + 20" style="rounded=1;whiteSpace=wrap;html=1;absoluteArcSize=1;arcSize=14;strokeWidth=2;" vertex="1" parent="1">
          <mxGeometry x="510" y="530" width="180" height="40" as="geometry" />
        </mxCell>
        <mxCell id="rF3gwP-p-KgcrX38op58-17" value="" style="endArrow=classic;html=1;" edge="1" parent="1">
          <mxGeometry width="50" height="50" relative="1" as="geometry">
            <mxPoint x="599.5" y="570" as="sourcePoint" />
            <mxPoint x="599.5" y="620" as="targetPoint" />
          </mxGeometry>
        </mxCell>
        <mxCell id="rF3gwP-p-KgcrX38op58-18" value="RTN result" style="strokeWidth=2;html=1;shape=mxgraph.flowchart.start_1;whiteSpace=wrap;" vertex="1" parent="1">
          <mxGeometry x="520" y="620" width="160" height="60" as="geometry" />
        </mxCell>
        <mxCell id="rF3gwP-p-KgcrX38op58-19" value="Yes" style="text;html=1;strokeColor=none;fillColor=none;align=center;verticalAlign=middle;whiteSpace=wrap;rounded=0;" vertex="1" parent="1">
          <mxGeometry x="240" y="360" width="40" height="20" as="geometry" />
        </mxCell>
        <mxCell id="rF3gwP-p-KgcrX38op58-20" value="終了" style="strokeWidth=2;html=1;shape=mxgraph.flowchart.start_1;whiteSpace=wrap;" vertex="1" parent="1">
          <mxGeometry x="135" y="720" width="160" height="60" as="geometry" />
        </mxCell>
        <mxCell id="rF3gwP-p-KgcrX38op58-22" value="No" style="text;html=1;strokeColor=none;fillColor=none;align=center;verticalAlign=middle;whiteSpace=wrap;rounded=0;" vertex="1" parent="1">
          <mxGeometry x="400" y="330" width="40" height="20" as="geometry" />
        </mxCell>
        <mxCell id="rF3gwP-p-KgcrX38op58-23" value="PRINT result" style="shape=parallelogram;html=1;strokeWidth=2;perimeter=parallelogramPerimeter;whiteSpace=wrap;rounded=1;arcSize=12;size=0.23;" vertex="1" parent="1">
          <mxGeometry x="140" y="610" width="160" height="60" as="geometry" />
        </mxCell>
        <mxCell id="rF3gwP-p-KgcrX38op58-26" value="変数定義&lt;br&gt;&lt;br&gt;hp: ヒットポイント&lt;br&gt;result: 結果" style="rounded=1;whiteSpace=wrap;html=1;absoluteArcSize=1;arcSize=14;strokeWidth=2;align=left;" vertex="1" parent="1">
          <mxGeometry x="350" y="60" width="180" height="100" as="geometry" />
        </mxCell>
        <mxCell id="rF3gwP-p-KgcrX38op58-28" value="変数定義&lt;br&gt;&lt;br&gt;hp: ヒットポイント&lt;br&gt;result: 結果" style="rounded=1;whiteSpace=wrap;html=1;absoluteArcSize=1;arcSize=14;strokeWidth=2;align=left;" vertex="1" parent="1">
          <mxGeometry x="660" y="310" width="180" height="100" as="geometry" />
        </mxCell>
        <mxCell id="rF3gwP-p-KgcrX38op58-29" value="" style="endArrow=classic;html=1;exitX=0;exitY=0.5;exitDx=0;exitDy=0;" edge="1" parent="1" source="rF3gwP-p-KgcrX38op58-10">
          <mxGeometry width="50" height="50" relative="1" as="geometry">
            <mxPoint x="190" y="550" as="sourcePoint" />
            <mxPoint x="220" y="260" as="targetPoint" />
            <Array as="points">
              <mxPoint x="40" y="450" />
              <mxPoint x="50" y="260" />
            </Array>
          </mxGeometry>
        </mxCell>
        <mxCell id="rF3gwP-p-KgcrX38op58-31" value="" style="endArrow=classic;html=1;" edge="1" parent="1">
          <mxGeometry width="50" height="50" relative="1" as="geometry">
            <mxPoint x="214.5" y="670" as="sourcePoint" />
            <mxPoint x="215" y="720" as="targetPoint" />
            <Array as="points">
              <mxPoint x="215" y="720" />
            </Array>
          </mxGeometry>
        </mxCell>
        <mxCell id="rF3gwP-p-KgcrX38op58-38" style="edgeStyle=orthogonalEdgeStyle;rounded=0;orthogonalLoop=1;jettySize=auto;html=1;" edge="1" parent="1" source="rF3gwP-p-KgcrX38op58-32" target="rF3gwP-p-KgcrX38op58-23">
          <mxGeometry relative="1" as="geometry" />
        </mxCell>
        <mxCell id="rF3gwP-p-KgcrX38op58-32" value="result ← hp" style="rounded=1;whiteSpace=wrap;html=1;absoluteArcSize=1;arcSize=14;strokeWidth=2;" vertex="1" parent="1">
          <mxGeometry x="350" y="480" width="100" height="60" as="geometry" />
        </mxCell>
      </root>
    </mxGraphModel>
  </diagram>
</mxfile>
